# xmcd
#
# Track frame offsets:
#	182
#	17155
#	37097
#	65817
#
# Disc length: 1196 seconds
# Revision: 0
# Processed by: cddbd v1.5.2PL0 Copyright (c) Steve Scherf et al.
# Submitted via: dBpowerAMP V12.0
#
DISCID=3504aa04
DTITLE=Donna Summer - La Vie En Rose [Remix]
DYEAR=1994
DGENRE=Pop
TTITLE0=La Vie En Rose [U.S. Radio Mix]
TTITLE1=La Vie En Rose [Full Bass Mix]
TTITLE2=La Vie En Rose [Extended Soul Mix]
TTITLE3=La Vie En Rose [Stringapella Mix]
EXTD=
EXTT0=
EXTT1=
EXTT2=
EXTT3=
PLAYORDER=
